<mxfile host="65bd71144e">
    <diagram id="1IKONmWEsu5W-emo_XLy" name="Page-1">
        <mxGraphModel dx="1736" dy="1626" grid="1" gridSize="10" guides="1" tooltips="1" connect="1" arrows="1" fold="1" page="1" pageScale="1" pageWidth="850" pageHeight="1100" math="0" shadow="0">
            <root>
                <mxCell id="0"/>
                <mxCell id="1" parent="0"/>
                <mxCell id="2" value="" style="rounded=0;whiteSpace=wrap;html=1;fillColor=#4C721D;" parent="1" vertex="1">
                    <mxGeometry x="210" y="150" width="480" height="320" as="geometry"/>
                </mxCell>
                <mxCell id="62" style="edgeStyle=none;rounded=0;html=1;fontColor=#CCCCCC;" edge="1" parent="1" source="4">
                    <mxGeometry relative="1" as="geometry">
                        <mxPoint x="449.9999999999998" y="80" as="targetPoint"/>
                    </mxGeometry>
                </mxCell>
                <mxCell id="4" value="opened_file_name.txt (&quot;unamed-_.txt&quot; if file not specified) 1/X (X: total files open)" style="rounded=0;whiteSpace=wrap;html=1;fillColor=#f5f5f5;fontColor=#333333;strokeColor=#666666;" parent="1" vertex="1">
                    <mxGeometry x="210" y="130" width="480" height="20" as="geometry"/>
                </mxCell>
                <mxCell id="6" value="Console" style="rounded=1;whiteSpace=wrap;html=1;arcSize=2;fillColor=#EBE2BE;" parent="1" vertex="1">
                    <mxGeometry x="460" y="290" width="220" height="170" as="geometry"/>
                </mxCell>
                <mxCell id="44" style="edgeStyle=none;rounded=0;html=1;" edge="1" parent="1" source="7">
                    <mxGeometry relative="1" as="geometry">
                        <mxPoint x="270" y="680" as="targetPoint"/>
                    </mxGeometry>
                </mxCell>
                <mxCell id="7" value="Step" style="rounded=1;whiteSpace=wrap;html=1;fillColor=#FAFF6B;" parent="1" vertex="1">
                    <mxGeometry x="220" y="440" width="100" height="20" as="geometry"/>
                </mxCell>
                <mxCell id="45" style="edgeStyle=none;rounded=0;html=1;" edge="1" parent="1" source="8">
                    <mxGeometry relative="1" as="geometry">
                        <mxPoint x="390" y="620" as="targetPoint"/>
                    </mxGeometry>
                </mxCell>
                <mxCell id="8" value="Run" style="rounded=1;whiteSpace=wrap;html=1;fillColor=#FAFF6B;" parent="1" vertex="1">
                    <mxGeometry x="340" y="440" width="100" height="20" as="geometry"/>
                </mxCell>
                <mxCell id="10" value="Register: '00'" style="rounded=1;whiteSpace=wrap;html=1;fillColor=#D5E3EB;" parent="1" vertex="1">
                    <mxGeometry x="340" y="400" width="100" height="20" as="geometry"/>
                </mxCell>
                <mxCell id="48" style="edgeStyle=none;rounded=0;html=1;" edge="1" parent="1" source="11">
                    <mxGeometry relative="1" as="geometry">
                        <mxPoint x="2.2737367544323206e-13" y="410" as="targetPoint"/>
                    </mxGeometry>
                </mxCell>
                <mxCell id="11" value="Accumulator: 1" style="rounded=1;whiteSpace=wrap;html=1;fillColor=#D5E3EB;" parent="1" vertex="1">
                    <mxGeometry x="220" y="400" width="100" height="20" as="geometry"/>
                </mxCell>
                <mxCell id="13" value="Memory" style="rounded=1;whiteSpace=wrap;html=1;arcSize=4;fillColor=#AFCDDE;" parent="1" vertex="1">
                    <mxGeometry x="220" y="180" width="220" height="210" as="geometry"/>
                </mxCell>
                <mxCell id="15" value="1&lt;br&gt;2&lt;br&gt;3&lt;br&gt;4&lt;br&gt;5&lt;br&gt;6&lt;br&gt;7&lt;br&gt;8&lt;br&gt;9&lt;br&gt;10&lt;br&gt;11&lt;br&gt;12&lt;br&gt;..." style="rounded=0;whiteSpace=wrap;html=1;strokeColor=none;fillColor=#D5E3EB;" parent="1" vertex="1">
                    <mxGeometry x="230" y="190" width="20" height="190" as="geometry"/>
                </mxCell>
                <mxCell id="16" value="[-----]&lt;br&gt;[-----]&lt;br&gt;[-----]&lt;br style=&quot;border-color: var(--border-color);&quot;&gt;[-----]&lt;br style=&quot;border-color: var(--border-color);&quot;&gt;(highlight current&lt;br style=&quot;border-color: var(--border-color);&quot;&gt;cell according to&amp;nbsp;&lt;br style=&quot;border-color: var(--border-color);&quot;&gt;accumulator&lt;br style=&quot;border-color: var(--border-color);&quot;&gt;light yellow&lt;br style=&quot;border-color: var(--border-color);&quot;&gt;[-----]&lt;br style=&quot;border-color: var(--border-color);&quot;&gt;(highlight selected&lt;br style=&quot;border-color: var(--border-color);&quot;&gt;cell nice blue)&lt;br style=&quot;border-color: var(--border-color);&quot;&gt;[-----]&lt;br style=&quot;border-color: var(--border-color);&quot;&gt;[-----]" style="rounded=0;whiteSpace=wrap;html=1;fillColor=#D5E3EB;" parent="1" vertex="1">
                    <mxGeometry x="260" y="190" width="100" height="190" as="geometry"/>
                </mxCell>
                <mxCell id="17" value="&lt;br&gt;&amp;lt;-&amp;nbsp; &amp;nbsp; &amp;nbsp; &amp;nbsp; &amp;nbsp; &amp;nbsp;&amp;nbsp;&lt;br&gt;&lt;br&gt;(show&lt;br&gt;counter&lt;br&gt;position)&lt;br&gt;(hide this&lt;br&gt;column's&lt;br&gt;outline)&lt;br&gt;(prevent&lt;br&gt;selection)&lt;br&gt;(ditto for&lt;br&gt;column #)" style="rounded=0;whiteSpace=wrap;html=1;fillColor=#D5E3EB;strokeColor=none;strokeWidth=1;" parent="1" vertex="1">
                    <mxGeometry x="370" y="190" width="60" height="190" as="geometry"/>
                </mxCell>
                <mxCell id="19" value="" style="rounded=0;whiteSpace=wrap;html=1;fillColor=#fff2cc;strokeColor=#d6b656;gradientColor=none;opacity=50;" vertex="1" parent="1">
                    <mxGeometry x="260" y="207" width="100" height="15" as="geometry"/>
                </mxCell>
                <mxCell id="24" value="- Un-fixed dimensions" style="rounded=0;whiteSpace=wrap;html=1;fillColor=#d5e8d4;strokeColor=#82b366;opacity=50;" vertex="1" parent="1">
                    <mxGeometry x="90" y="170" width="80" height="220" as="geometry"/>
                </mxCell>
                <mxCell id="25" value="" style="endArrow=none;html=1;fillColor=#d5e8d4;strokeColor=#82b366;rounded=0;" edge="1" parent="1">
                    <mxGeometry width="50" height="50" relative="1" as="geometry">
                        <mxPoint x="200" y="390" as="sourcePoint"/>
                        <mxPoint x="200" y="170" as="targetPoint"/>
                        <Array as="points">
                            <mxPoint x="180" y="390"/>
                            <mxPoint x="180" y="170"/>
                        </Array>
                    </mxGeometry>
                </mxCell>
                <mxCell id="26" value="" style="endArrow=none;html=1;fillColor=#dae8fc;strokeColor=#6c8ebf;rounded=0;" edge="1" parent="1">
                    <mxGeometry width="50" height="50" relative="1" as="geometry">
                        <mxPoint x="200" y="470" as="sourcePoint"/>
                        <mxPoint x="180" y="390" as="targetPoint"/>
                        <Array as="points">
                            <mxPoint x="180" y="470"/>
                        </Array>
                    </mxGeometry>
                </mxCell>
                <mxCell id="22" value="- Fixed Height&lt;br&gt;Only" style="whiteSpace=wrap;html=1;aspect=fixed;fillColor=#dae8fc;strokeColor=#6c8ebf;opacity=50;" vertex="1" parent="1">
                    <mxGeometry x="90" y="390" width="80" height="80" as="geometry"/>
                </mxCell>
                <mxCell id="27" value="-Half of max width" style="rounded=0;whiteSpace=wrap;html=1;fillColor=#d5e8d4;strokeColor=#82b366;opacity=50;" vertex="1" parent="1">
                    <mxGeometry x="210" y="510" width="240" height="80" as="geometry"/>
                </mxCell>
                <mxCell id="28" value="-Half of max width" style="rounded=0;whiteSpace=wrap;html=1;fillColor=#dae8fc;strokeColor=#6c8ebf;opacity=50;" vertex="1" parent="1">
                    <mxGeometry x="450" y="510" width="240" height="80" as="geometry"/>
                </mxCell>
                <mxCell id="29" value="" style="endArrow=none;html=1;rounded=0;fillColor=#d5e8d4;strokeColor=#82b366;" edge="1" parent="1">
                    <mxGeometry width="50" height="50" relative="1" as="geometry">
                        <mxPoint x="210" y="480" as="sourcePoint"/>
                        <mxPoint x="450" y="480" as="targetPoint"/>
                        <Array as="points">
                            <mxPoint x="210" y="500"/>
                            <mxPoint x="450" y="500"/>
                        </Array>
                    </mxGeometry>
                </mxCell>
                <mxCell id="30" value="" style="endArrow=none;html=1;rounded=0;fillColor=#dae8fc;strokeColor=#6c8ebf;" edge="1" parent="1">
                    <mxGeometry width="50" height="50" relative="1" as="geometry">
                        <mxPoint x="450" y="500" as="sourcePoint"/>
                        <mxPoint x="690" y="480" as="targetPoint"/>
                        <Array as="points">
                            <mxPoint x="690" y="500"/>
                        </Array>
                    </mxGeometry>
                </mxCell>
                <mxCell id="31" value="Clear Console" style="rounded=1;whiteSpace=wrap;html=1;fillColor=#EBE2BE;" vertex="1" parent="1">
                    <mxGeometry x="460" y="260" width="100" height="20" as="geometry"/>
                </mxCell>
                <mxCell id="32" value="Open Text Editor" style="rounded=1;whiteSpace=wrap;html=1;fillColor=#9BC499;" vertex="1" parent="1">
                    <mxGeometry x="460" y="210" width="220" height="40" as="geometry"/>
                </mxCell>
                <mxCell id="33" value="Copy Console" style="rounded=1;whiteSpace=wrap;html=1;fillColor=#EBE2BE;" vertex="1" parent="1">
                    <mxGeometry x="580" y="260" width="100" height="20" as="geometry"/>
                </mxCell>
                <mxCell id="36" value="" style="rounded=0;whiteSpace=wrap;html=1;fillColor=#9BC499;" vertex="1" parent="1">
                    <mxGeometry x="210" y="150" width="480" height="20" as="geometry"/>
                </mxCell>
                <mxCell id="38" value="File" style="rounded=0;whiteSpace=wrap;html=1;fillColor=#f5f5f5;fontColor=#333333;strokeColor=#666666;" vertex="1" parent="1">
                    <mxGeometry x="210" y="150" width="60" height="20" as="geometry"/>
                </mxCell>
                <mxCell id="39" value="Layout" style="rounded=0;whiteSpace=wrap;html=1;fillColor=#f5f5f5;fontColor=#333333;strokeColor=#666666;" vertex="1" parent="1">
                    <mxGeometry x="270" y="150" width="60" height="20" as="geometry"/>
                </mxCell>
                <mxCell id="40" value="Help" style="rounded=0;whiteSpace=wrap;html=1;fillColor=#f5f5f5;fontColor=#333333;strokeColor=#666666;" vertex="1" parent="1">
                    <mxGeometry x="330" y="150" width="60" height="20" as="geometry"/>
                </mxCell>
                <mxCell id="42" value="While these colors&lt;br&gt;do sUck,&lt;br&gt;colors should&lt;br&gt;be related to their&lt;br&gt;respective functionality" style="ellipse;shape=cloud;whiteSpace=wrap;html=1;strokeColor=#b85450;strokeWidth=1;fillColor=#f8cecc;" vertex="1" parent="1">
                    <mxGeometry x="-30" y="530" width="180" height="200" as="geometry"/>
                </mxCell>
                <mxCell id="47" style="edgeStyle=none;rounded=0;html=1;" edge="1" parent="1" source="46">
                    <mxGeometry relative="1" as="geometry">
                        <mxPoint x="270" y="650" as="targetPoint"/>
                    </mxGeometry>
                </mxCell>
                <mxCell id="46" value="Loop Step" style="rounded=0;whiteSpace=wrap;html=1;strokeWidth=1;fillColor=#e1d5e7;strokeColor=#9673a6;" vertex="1" parent="1">
                    <mxGeometry x="330" y="620" width="120" height="60" as="geometry"/>
                </mxCell>
                <mxCell id="49" value="" style="rounded=0;whiteSpace=wrap;html=1;strokeWidth=1;" vertex="1" parent="1">
                    <mxGeometry x="-190" y="370" width="190" height="90" as="geometry"/>
                </mxCell>
                <mxCell id="50" value="Accumulator" style="rounded=0;whiteSpace=wrap;html=1;strokeWidth=1;fillColor=#f5f5f5;fontColor=#333333;strokeColor=#666666;" vertex="1" parent="1">
                    <mxGeometry x="-190" y="350" width="190" height="20" as="geometry"/>
                </mxCell>
                <mxCell id="51" value="What value do you want to&lt;br&gt;give the accumulator? (0-99)" style="rounded=0;whiteSpace=wrap;html=1;strokeWidth=1;strokeColor=none;fillColor=none;" vertex="1" parent="1">
                    <mxGeometry x="-190" y="370" width="190" height="30" as="geometry"/>
                </mxCell>
                <mxCell id="52" value="&lt;font color=&quot;#cccccc&quot;&gt;Enter a Number between 0-99&lt;/font&gt;" style="rounded=1;whiteSpace=wrap;html=1;strokeWidth=1;" vertex="1" parent="1">
                    <mxGeometry x="-180" y="400" width="170" height="20" as="geometry"/>
                </mxCell>
                <mxCell id="53" value="Confirm" style="rounded=1;whiteSpace=wrap;html=1;strokeWidth=1;" vertex="1" parent="1">
                    <mxGeometry x="-60" y="430" width="50" height="20" as="geometry"/>
                </mxCell>
                <mxCell id="54" value="Cancel" style="rounded=1;whiteSpace=wrap;html=1;strokeWidth=1;" vertex="1" parent="1">
                    <mxGeometry x="-120" y="430" width="50" height="20" as="geometry"/>
                </mxCell>
                <mxCell id="55" value="" style="rounded=0;whiteSpace=wrap;html=1;strokeWidth=1;" vertex="1" parent="1">
                    <mxGeometry x="-290" y="220" width="190" height="90" as="geometry"/>
                </mxCell>
                <mxCell id="56" value="Memory Location XX" style="rounded=0;whiteSpace=wrap;html=1;strokeWidth=1;fillColor=#f5f5f5;fontColor=#333333;strokeColor=#666666;" vertex="1" parent="1">
                    <mxGeometry x="-290" y="200" width="190" height="20" as="geometry"/>
                </mxCell>
                <mxCell id="57" value="What value do you want to&lt;br&gt;give this spot in memory?" style="rounded=0;whiteSpace=wrap;html=1;strokeWidth=1;strokeColor=none;fillColor=none;" vertex="1" parent="1">
                    <mxGeometry x="-290" y="220" width="190" height="30" as="geometry"/>
                </mxCell>
                <mxCell id="58" value="&lt;font color=&quot;#cccccc&quot;&gt;+xxXX&lt;/font&gt;" style="rounded=1;whiteSpace=wrap;html=1;strokeWidth=1;" vertex="1" parent="1">
                    <mxGeometry x="-280" y="250" width="170" height="20" as="geometry"/>
                </mxCell>
                <mxCell id="59" value="Confirm" style="rounded=1;whiteSpace=wrap;html=1;strokeWidth=1;" vertex="1" parent="1">
                    <mxGeometry x="-160" y="280" width="50" height="20" as="geometry"/>
                </mxCell>
                <mxCell id="60" value="Cancel" style="rounded=1;whiteSpace=wrap;html=1;strokeWidth=1;" vertex="1" parent="1">
                    <mxGeometry x="-220" y="280" width="50" height="20" as="geometry"/>
                </mxCell>
                <mxCell id="71" style="edgeStyle=none;rounded=0;html=1;fontColor=#CCCCCC;" edge="1" parent="1" source="61">
                    <mxGeometry relative="1" as="geometry">
                        <mxPoint x="-100" y="260" as="targetPoint"/>
                    </mxGeometry>
                </mxCell>
                <mxCell id="61" value="Double-click spot&lt;br&gt;in memory" style="rounded=0;whiteSpace=wrap;html=1;strokeWidth=1;fillColor=#e1d5e7;strokeColor=#9673a6;" vertex="1" parent="1">
                    <mxGeometry x="-50" y="230" width="120" height="60" as="geometry"/>
                </mxCell>
                <mxCell id="63" value="" style="triangle;whiteSpace=wrap;html=1;strokeWidth=1;fillColor=#E3C1EB;" vertex="1" parent="1">
                    <mxGeometry x="660" y="180" width="20" height="20" as="geometry"/>
                </mxCell>
                <mxCell id="64" value="" style="triangle;whiteSpace=wrap;html=1;strokeWidth=1;fillColor=#E3C1EB;direction=west;" vertex="1" parent="1">
                    <mxGeometry x="630" y="180" width="20" height="20" as="geometry"/>
                </mxCell>
                <mxCell id="66" value="Ex:&lt;br&gt;demo.txt (4/5)" style="rounded=0;whiteSpace=wrap;html=1;strokeWidth=1;fillColor=#e1d5e7;strokeColor=#9673a6;" vertex="1" parent="1">
                    <mxGeometry x="390" y="50" width="120" height="30" as="geometry"/>
                </mxCell>
                <mxCell id="68" style="edgeStyle=none;rounded=0;html=1;fontColor=#CCCCCC;" edge="1" parent="1" source="67">
                    <mxGeometry relative="1" as="geometry">
                        <mxPoint x="584.9999999999998" y="80" as="targetPoint"/>
                    </mxGeometry>
                </mxCell>
                <mxCell id="67" value="Page: 1" style="rounded=1;whiteSpace=wrap;html=1;fillColor=#E3C1EB;" vertex="1" parent="1">
                    <mxGeometry x="550" y="180" width="70" height="20" as="geometry"/>
                </mxCell>
                <mxCell id="72" value="" style="rounded=0;whiteSpace=wrap;html=1;strokeWidth=1;" vertex="1" parent="1">
                    <mxGeometry x="550" y="-10" width="190" height="90" as="geometry"/>
                </mxCell>
                <mxCell id="73" value="Page Number" style="rounded=0;whiteSpace=wrap;html=1;strokeWidth=1;fillColor=#f5f5f5;fontColor=#333333;strokeColor=#666666;" vertex="1" parent="1">
                    <mxGeometry x="550" y="-30" width="190" height="20" as="geometry"/>
                </mxCell>
                <mxCell id="74" value="Which page do you want&lt;br&gt;to visit?" style="rounded=0;whiteSpace=wrap;html=1;strokeWidth=1;strokeColor=none;fillColor=none;" vertex="1" parent="1">
                    <mxGeometry x="550" y="-10" width="190" height="30" as="geometry"/>
                </mxCell>
                <mxCell id="75" value="&lt;font color=&quot;#cccccc&quot;&gt;Enter Page Number&lt;/font&gt;" style="rounded=1;whiteSpace=wrap;html=1;strokeWidth=1;" vertex="1" parent="1">
                    <mxGeometry x="560" y="20" width="170" height="20" as="geometry"/>
                </mxCell>
                <mxCell id="76" value="Confirm" style="rounded=1;whiteSpace=wrap;html=1;strokeWidth=1;" vertex="1" parent="1">
                    <mxGeometry x="680" y="50" width="50" height="20" as="geometry"/>
                </mxCell>
                <mxCell id="77" value="Cancel" style="rounded=1;whiteSpace=wrap;html=1;strokeWidth=1;" vertex="1" parent="1">
                    <mxGeometry x="620" y="50" width="50" height="20" as="geometry"/>
                </mxCell>
                <mxCell id="78" value="Open File" style="rounded=1;whiteSpace=wrap;html=1;fillColor=#E3C1EB;" vertex="1" parent="1">
                    <mxGeometry x="460" y="180" width="80" height="20" as="geometry"/>
                </mxCell>
            </root>
        </mxGraphModel>
    </diagram>
</mxfile>